<svg xmlns="http://www.w3.org/2000/svg" width="128" height="128" viewBox="0 0 128 128">
  <path d="M114,15.25H14A9.761,9.761,0,0,0,4.25,25v77A10.762,10.762,0,0,0,15,112.75h98A10.762,10.762,0,0,0,123.75,102V25A9.761,9.761,0,0,0,114,15.25ZM120.25,25V36.683H52.888L61.37,18.75H114A6.257,6.257,0,0,1,120.25,25ZM14,18.75H57.5L49.016,36.683H7.75V25A6.257,6.257,0,0,1,14,18.75Zm99,90.5H15A7.258,7.258,0,0,1,7.75,102V40.183h112.5V102A7.258,7.258,0,0,1,113,109.25Z"/>
  <path d="M21.57,33.467a5.75,5.75,0,1,0-5.75-5.75A5.756,5.756,0,0,0,21.57,33.467Zm0-8a2.25,2.25,0,1,1-2.25,2.25A2.253,2.253,0,0,1,21.57,25.467Z"/>
  <path d="M37.626,33.467a5.75,5.75,0,1,0-5.75-5.75A5.756,5.756,0,0,0,37.626,33.467Zm0-8a2.25,2.25,0,1,1-2.25,2.25A2.253,2.253,0,0,1,37.626,25.467Z"/>
  <path d="M67.522,29.467h44.745a1.75,1.75,0,0,0,0-3.5H67.522a1.75,1.75,0,0,0,0,3.5Z"/>
  <path d="M43.5,68.415H49V84.593a1.75,1.75,0,0,0,1.75,1.75h26.5A1.75,1.75,0,0,0,79,84.593V68.415h5.5a1.75,1.75,0,0,0,1.161-3.06l-20.5-18.173a1.749,1.749,0,0,0-2.322,0l-20.5,18.173a1.75,1.75,0,0,0,1.161,3.06ZM60.706,82.843V72.089h6.588V82.843ZM64,50.83,79.888,64.915H77.252a1.75,1.75,0,0,0-1.75,1.75V82.843H70.794v-12.5a1.749,1.749,0,0,0-1.75-1.75H58.956a1.749,1.749,0,0,0-1.75,1.75v12.5H52.5V66.665a1.75,1.75,0,0,0-1.75-1.75H48.112Z"/>
  <path d="M97.5,89.821h-67a1.75,1.75,0,0,0-1.75,1.75v10.858a1.75,1.75,0,0,0,1.75,1.75h67a1.75,1.75,0,0,0,1.75-1.75V91.571A1.75,1.75,0,0,0,97.5,89.821ZM32.25,100.679V93.321h7.358v7.358Zm63.5,0H43.108V93.321H95.75Z"/>
</svg>
